<?xml version="1.0" encoding="utf-8"?>
<svg version="1.1" width="256" height="256" viewBox="0 0 256 256" xmlns="http://www.w3.org/2000/svg" xmlns:bx="https://boxy-svg.com">
  <text style="fill: rgb(255, 255, 255); font-family: Arial, sans-serif; font-size: 46.4px; font-weight: 700; white-space: pre;" x="48.749" y="52.644"><title>E</title>E</text>
  <g style="stroke: none; stroke-width: 0; stroke-dasharray: none; stroke-linecap: butt; stroke-linejoin: miter; stroke-miterlimit: 10; fill: none; fill-rule: nonzero; opacity: 1;" transform="translate(1.4065934065934016 1.4065934065934016) scale(2.81 2.81)">
    <path d="M 77.474 17.28 L 61.526 1.332 C 60.668 0.473 59.525 0 58.311 0 H 15.742 c -2.508 0 -4.548 2.04 -4.548 4.548 v 80.904 c 0 2.508 2.04 4.548 4.548 4.548 h 58.516 c 2.508 0 4.549 -2.04 4.549 -4.548 V 20.496 C 78.807 19.281 78.333 18.138 77.474 17.28 z M 61.073 5.121 l 12.611 12.612 H 62.35 c -0.704 0 -1.276 -0.573 -1.276 -1.277 V 5.121 z M 74.258 87 H 15.742 c -0.854 0 -1.548 -0.694 -1.548 -1.548 V 4.548 C 14.194 3.694 14.888 3 15.742 3 h 42.332 v 13.456 c 0 2.358 1.918 4.277 4.276 4.277 h 13.457 v 64.719 C 75.807 86.306 75.112 87 74.258 87 z" style="stroke: none; stroke-width: 1; stroke-dasharray: none; stroke-linecap: butt; stroke-linejoin: miter; stroke-miterlimit: 10; fill-rule: nonzero; opacity: 1; fill: rgb(255, 255, 255);" transform=" matrix(1 0 0 1 0 0) " stroke-linecap="round"/>
    <g>
      <path d="M 57.439 26.239 L 26.734 26.239 C 25.905 26.239 25.234 25.568 25.234 24.739 C 25.234 23.91 25.905 23.239 26.734 23.239 L 57.439 23.239 C 58.267 23.239 58.939 23.91 58.939 24.739 C 58.939 25.568 58.267 26.239 57.439 26.239 Z" style="stroke: none; stroke-width: 1; stroke-dasharray: none; stroke-linecap: butt; stroke-linejoin: miter; stroke-miterlimit: 10; fill-rule: nonzero; opacity: 1; fill: rgb(255, 255, 255);" stroke-linecap="round"/>
      <path d="M 30.291 30.423 L 21.939 30.423 C 21.11 30.423 20.439 29.752 20.439 28.923 C 20.439 28.094 21.11 27.423 21.939 27.423 L 30.292 27.423 C 31.121 27.423 31.792 28.094 31.792 28.923 C 31.792 29.752 31.12 30.423 30.291 30.423 Z" style="stroke: none; stroke-width: 1; stroke-dasharray: none; stroke-linecap: butt; stroke-linejoin: miter; stroke-miterlimit: 10; fill-rule: nonzero; opacity: 1; fill: rgb(255, 255, 255);" stroke-linecap="round" transform="matrix(0, 1, -1, 0, 55.0385, 2.807501)"/>
      <path d="M 61.79 30.424 L 53.438 30.424 C 52.609 30.424 51.938 29.753 51.938 28.924 C 51.938 28.095 52.609 27.424 53.438 27.424 L 61.791 27.424 C 62.62 27.424 63.291 28.095 63.291 28.924 C 63.291 29.753 62.619 30.424 61.79 30.424 Z" style="stroke: none; stroke-width: 1; stroke-dasharray: none; stroke-linecap: butt; stroke-linejoin: miter; stroke-miterlimit: 10; fill-rule: nonzero; opacity: 1; fill: rgb(255, 255, 255);" stroke-linecap="round" transform="matrix(0, 1, -1, 0, 86.5385, -28.6905)"/>
      <path d="M 57.439 34.655 L 26.734 34.655 C 25.905 34.655 25.234 33.984 25.234 33.155 C 25.234 32.326 25.905 31.655 26.734 31.655 L 57.439 31.655 C 58.267 31.655 58.939 32.326 58.939 33.155 C 58.939 33.984 58.267 34.655 57.439 34.655 Z" style="stroke: none; stroke-width: 1; stroke-dasharray: none; stroke-linecap: butt; stroke-linejoin: miter; stroke-miterlimit: 10; fill-rule: nonzero; opacity: 1; fill: rgb(255, 255, 255);" stroke-linecap="round"/>
    </g>
    <g>
      <title>C</title>
      <path d="M 59.971 38.541 L 26.223 38.541 C 25.394 38.541 24.723 37.87 24.723 37.041 C 24.723 36.212 25.394 35.541 26.223 35.541 L 59.971 35.541 C 60.799 35.541 61.471 36.212 61.471 37.041 C 61.471 37.87 60.799 38.541 59.971 38.541 Z" style="stroke: none; stroke-width: 1; stroke-dasharray: none; stroke-linecap: butt; stroke-linejoin: miter; stroke-miterlimit: 10; fill-rule: nonzero; opacity: 1; fill: rgb(255, 255, 255);" stroke-linecap="round"/>
      <path d="M 41.114 53.549 L 11.115 53.549 C 10.286 53.549 9.615 52.878 9.615 52.049 C 9.615 51.22 10.286 50.549 11.115 50.549 L 41.115 50.549 C 41.944 50.549 42.615 51.22 42.615 52.049 C 42.615 52.878 41.943 53.549 41.114 53.549 Z" style="stroke: none; stroke-width: 1; stroke-dasharray: none; stroke-linecap: butt; stroke-linejoin: miter; stroke-miterlimit: 10; fill-rule: nonzero; opacity: 1; fill: rgb(255, 255, 255);" stroke-linecap="round" transform="matrix(0, 1, -1, 0, 78.164, 25.934)"/>
      <path d="M 64.225 42.629 L 56.067 42.629 C 55.238 42.629 54.567 41.958 54.567 41.129 C 54.567 40.3 55.238 39.629 56.067 39.629 L 64.226 39.629 C 65.055 39.629 65.726 40.3 65.726 41.129 C 65.726 41.958 65.054 42.629 64.225 42.629 Z" style="stroke: none; stroke-width: 1; stroke-dasharray: none; stroke-linecap: butt; stroke-linejoin: miter; stroke-miterlimit: 10; fill-rule: nonzero; opacity: 1; fill: rgb(255, 255, 255);" stroke-linecap="round" transform="matrix(0, 1, -1, 0, 101.275501, -19.017498)"/>
      <path d="M 59.971 68.604 L 26.223 68.604 C 25.394 68.604 24.723 67.933 24.723 67.104 C 24.723 66.275 25.394 65.604 26.223 65.604 L 59.971 65.604 C 60.799 65.604 61.471 66.275 61.471 67.104 C 61.471 67.933 60.799 68.604 59.971 68.604 Z" style="stroke: none; stroke-width: 1; stroke-dasharray: none; stroke-linecap: butt; stroke-linejoin: miter; stroke-miterlimit: 10; fill-rule: nonzero; opacity: 1; fill: rgb(255, 255, 255);" stroke-linecap="round"/>
      <path d="M 59.971 46.752 L 34.379 46.752 C 33.55 46.752 32.879 46.081 32.879 45.252 C 32.879 44.423 33.55 43.752 34.379 43.752 L 59.971 43.752 C 60.799 43.752 61.471 44.423 61.471 45.252 C 61.471 46.081 60.799 46.752 59.971 46.752 Z" style="stroke: none; stroke-width: 1; stroke-dasharray: none; stroke-linecap: butt; stroke-linejoin: miter; stroke-miterlimit: 10; fill-rule: nonzero; opacity: 1; fill: rgb(255, 255, 255);" stroke-linecap="round" bx:origin="0.5 0.649294"/>
      <path d="M 64.226 61.408 L 56.068 61.408 C 55.239 61.408 54.568 62.079 54.568 62.908 C 54.568 63.737 55.239 64.408 56.068 64.408 L 64.227 64.408 C 65.056 64.408 65.727 63.737 65.727 62.908 C 65.727 62.079 65.055 61.408 64.226 61.408 Z" style="stroke: none; stroke-width: 1; stroke-dasharray: none; stroke-linecap: butt; stroke-linejoin: miter; stroke-miterlimit: 10; fill-rule: nonzero; opacity: 1; fill: rgb(255, 255, 255);" stroke-linecap="round" transform="matrix(0, -1, 1, 0, -2.7605, 123.055498)"/>
      <path d="M 59.971 57.284 L 34.379 57.284 C 33.55 57.284 32.879 57.955 32.879 58.784 C 32.879 59.613 33.55 60.284 34.379 60.284 L 59.971 60.284 C 60.799 60.284 61.471 59.613 61.471 58.784 C 61.471 57.955 60.799 57.284 59.971 57.284 Z" style="stroke: none; stroke-width: 1; stroke-dasharray: none; stroke-linecap: butt; stroke-linejoin: miter; stroke-miterlimit: 10; fill-rule: nonzero; opacity: 1; fill: rgb(255, 255, 255);" stroke-linecap="round" bx:origin="0.5 0.649294"/>
      <path d="M 40.975 53.503 L 27.795 53.503 C 26.966 53.503 26.295 52.832 26.295 52.003 C 26.295 51.174 26.966 50.503 27.795 50.503 L 40.976 50.503 C 41.805 50.503 42.476 51.174 42.476 52.003 C 42.476 52.832 41.804 53.503 40.975 53.503 Z" style="stroke: none; stroke-width: 1; stroke-dasharray: none; stroke-linecap: butt; stroke-linejoin: miter; stroke-miterlimit: 10; fill-rule: nonzero; opacity: 1; fill: rgb(255, 255, 255);" stroke-linecap="round" transform="matrix(0, 1, -1, 0, 86.388499, 17.617497)"/>
    </g>
    <g>
      <path d="M 55.441 72.814 L 26.734 72.814 C 25.905 72.814 25.234 72.143 25.234 71.314 C 25.234 70.485 25.905 69.814 26.734 69.814 L 55.441 69.814 C 56.269 69.814 56.941 70.485 56.941 71.314 C 56.941 72.143 56.269 72.814 55.441 72.814 Z" style="stroke: none; stroke-width: 1; stroke-dasharray: none; stroke-linecap: butt; stroke-linejoin: miter; stroke-miterlimit: 10; fill-rule: nonzero; opacity: 1; fill: rgb(255, 255, 255);" stroke-linecap="round"/>
      <path d="M 30.291 76.999 L 21.939 76.999 C 21.11 76.999 20.439 76.328 20.439 75.499 C 20.439 74.67 21.11 73.999 21.939 73.999 L 30.292 73.999 C 31.121 73.999 31.792 74.67 31.792 75.499 C 31.792 76.328 31.12 76.999 30.291 76.999 Z" style="stroke: none; stroke-width: 1; stroke-dasharray: none; stroke-linecap: butt; stroke-linejoin: miter; stroke-miterlimit: 10; fill-rule: nonzero; opacity: 1; fill: rgb(255, 255, 255);" stroke-linecap="round" transform="matrix(0, 1, -1, 0, 101.6145, 49.383501)"/>
      <path d="M 59.793 76.999 L 51.441 76.999 C 50.612 76.999 49.941 76.328 49.941 75.499 C 49.941 74.67 50.612 73.999 51.441 73.999 L 59.794 73.999 C 60.623 73.999 61.294 74.67 61.294 75.499 C 61.294 76.328 60.622 76.999 59.793 76.999 Z" style="stroke: none; stroke-width: 1; stroke-dasharray: none; stroke-linecap: butt; stroke-linejoin: miter; stroke-miterlimit: 10; fill-rule: nonzero; opacity: 1; fill: rgb(255, 255, 255);" stroke-linecap="round" transform="matrix(0, 1, -1, 0, 131.116501, 19.8815)"/>
      <path d="M 55.441 81.23 L 26.734 81.23 C 25.905 81.23 25.234 80.559 25.234 79.73 C 25.234 78.901 25.905 78.23 26.734 78.23 L 55.441 78.23 C 56.269 78.23 56.941 78.901 56.941 79.73 C 56.941 80.559 56.269 81.23 55.441 81.23 Z" style="stroke: none; stroke-width: 1; stroke-dasharray: none; stroke-linecap: butt; stroke-linejoin: miter; stroke-miterlimit: 10; fill-rule: nonzero; opacity: 1; fill: rgb(255, 255, 255);" stroke-linecap="round"/>
    </g>
    <g>
      <path d="M 63.901 50.393 L 38.523 50.393 C 37.694 50.393 37.023 49.722 37.023 48.893 C 37.023 48.064 37.694 47.393 38.523 47.393 L 63.901 47.393 C 64.729 47.393 65.401 48.064 65.401 48.893 C 65.401 49.722 64.729 50.393 63.901 50.393 Z" style="stroke: none; stroke-width: 1; stroke-dasharray: none; stroke-linecap: butt; stroke-linejoin: miter; stroke-miterlimit: 10; fill-rule: nonzero; opacity: 1; fill: rgb(255, 255, 255);" stroke-linecap="round"/>
      <path d="M 40.982 53.48 L 34.826 53.48 C 33.997 53.48 33.326 52.809 33.326 51.98 C 33.326 51.151 33.997 50.48 34.826 50.48 L 40.983 50.48 C 41.812 50.48 42.483 51.151 42.483 51.98 C 42.483 52.809 41.811 53.48 40.982 53.48 Z" style="stroke: none; stroke-width: 1; stroke-dasharray: none; stroke-linecap: butt; stroke-linejoin: miter; stroke-miterlimit: 10; fill-rule: nonzero; opacity: 1; fill: rgb(255, 255, 255);" stroke-linecap="round" transform="matrix(0, 1, -1, 0, 89.884501, 14.075499)"/>
      <path d="M 67.155 53.48 L 60.999 53.48 C 60.17 53.48 59.499 52.809 59.499 51.98 C 59.499 51.151 60.17 50.48 60.999 50.48 L 67.156 50.48 C 67.985 50.48 68.656 51.151 68.656 51.98 C 68.656 52.809 67.984 53.48 67.155 53.48 Z" style="stroke: none; stroke-width: 1; stroke-dasharray: none; stroke-linecap: butt; stroke-linejoin: miter; stroke-miterlimit: 10; fill-rule: nonzero; opacity: 1; fill: rgb(255, 255, 255);" stroke-linecap="round" transform="matrix(0, 1, -1, 0, 116.057499, -12.0975)"/>
      <path d="M 63.901 56.613 L 38.523 56.613 C 37.694 56.613 37.023 55.942 37.023 55.113 C 37.023 54.284 37.694 53.613 38.523 53.613 L 63.901 53.613 C 64.729 53.613 65.401 54.284 65.401 55.113 C 65.401 55.942 64.729 56.613 63.901 56.613 Z" style="stroke: none; stroke-width: 1; stroke-dasharray: none; stroke-linecap: butt; stroke-linejoin: miter; stroke-miterlimit: 10; fill-rule: nonzero; opacity: 1; fill: rgb(255, 255, 255);" stroke-linecap="round"/>
    </g>
  </g>
</svg>