<?xml version="1.0" encoding="utf-8"?>
<svg viewBox="0 0 500 500" xmlns="http://www.w3.org/2000/svg" xmlns:bx="https://boxy-svg.com">
  <ellipse style="fill: rgb(48, 53, 68);" cx="250" cy="250" rx="250" ry="250"/>
  <g data-id="`LV}[)AA*BcR!4D0QakQ" class="blocklyDraggable" transform="matrix(4.456386, 0, 0, 4.456386, 118.235619, 88.203056)" style="">
    <path class="blocklyPath" d="M 11.913 74.07 C -5.14 70.109 -9.701 7.054 11.753 0.104 C 28.07 -5.182 47.941 -1.908 50 0.104 C 52.292 2.344 50 10.104 50 10.104 L 44.569 13.516 L 41.985 13.516 L 35.985 9.516 L 26.635 9.497 C 24.086 9.497 21.604 9.347 20 11.539 C 8.909 26.691 14.175 55.23 20.222 62.171 C 22.457 64.737 23.455 65.093 27.925 64.765 L 37.833 64.658 L 41.5 67.104 L 44.5 67.104 L 49.06 64.078 C 49.06 64.078 49.776 64.151 50 64.198 C 53.262 64.882 52.412 71.176 49.548 72.882 C 44.676 75.783 22.762 76.59 11.913 74.07 Z" style="fill: none; stroke: rgb(223, 192, 131); paint-order: fill; stroke-width: 1.61006px;"/>
    <g data-id="KEg=[.:@[3wPZ^mJQ|%G" transform="matrix(1, 0, 0, 1, 21, 11.104242)" style="display: block;" class="blocklyDraggable">
      <path class="blocklyPath" d="M -3.259 8.04 C -2.327 5.638 -1.091 3.224 0.112 1.575 C 1.52 -0.509 3.914 0.033 6.812 -0.034 L 14.523 0 L 20.523 4 L 24 4 L 30 0 C 30 0 33.671 -0.251 35.068 1.18 C 42.319 8.608 41.515 19.815 34.944 23.625 C 33.07 24.712 29.5 25 29.5 25 L 23.5 29 L 20.5 29 L 14.5 25 L -5.934 24.999 C -6.043 16.92 -4.332 10.807 -3.259 8.04 Z" style="fill: none; stroke-width: 1.59288px; stroke: rgb(69, 140, 199);"/>
      <g class="blocklyEditableText" transform="matrix(1.054514, 0, 0, 0.862297, 2.521756, 6.311489)" style="cursor: default;">
        <path class="blocklyFieldRect" style="fill-opacity: 1; fill: none; stroke-width: 1.66201px; stroke: rgb(69, 140, 199);" d="M 5.77 1.915 H 20.235 A 5.445 5.445 0 0 1 25.68 7.36 V 9.406 A 5.445 5.445 0 0 1 20.235 14.851 H 5.77 A 1.11 1.11 0 0 1 4.66 13.741 V 3.025 A 1.11 1.11 0 0 1 5.77 1.915 Z" bx:shape="rect 4.66 1.915 21.02 12.936 1.11 5.445 5.445 1.11 1@8e6f9cbe"/>
      </g>
      <g data-id="lG`fd)H(I$$wx:Jxd.D$" transform="translate(0,26)" class="blocklyDraggable">
        <path class="blocklyPath" d="M -5.933 -1 L 15 -1 L 21 3 L 24 3 L 30 -1 C 30 -1 32.868 -0.312 34.781 1.099 C 44.147 8.008 41.293 22.687 34.831 24.673 C 32.76 25.31 29.5 26 29.5 26 L 23.5 30 L 20.5 30 L 14.5 26 L 3.807 26.187 C 0.229 26.125 -2.518 18.982 -3.156 16.954 C -5.925 8.157 -5.933 -1 -5.933 -1 Z" style="fill: none; stroke-width: 1.59288px; stroke: rgb(69, 140, 199);"/>
        <g class="blocklyEditableText" transform="matrix(1.054514, 0, 0, 0.862297, 3.637074, 6.311485)" style="cursor: default;">
          <path class="blocklyFieldRect" style="fill-opacity: 1; fill: none; stroke-width: 1.66201px; stroke: rgb(69, 140, 199);" d="M 4.712 1.915 H 19.136 A 5.486 5.486 0 0 1 24.622 7.401 V 9.365 A 5.486 5.486 0 0 1 19.136 14.851 H 4.712 A 1.11 1.11 0 0 1 3.602 13.741 V 3.025 A 1.11 1.11 0 0 1 4.712 1.915 Z" bx:shape="rect 3.602 1.915 21.02 12.936 1.11 5.486 5.486 1.11 1@a1e26e5a"/>
        </g>
      </g>
      <g class="blocklyEditableText" transform="matrix(1.054514, 0, 0, 0.862297, 2.521755, 5.891761)" style="cursor: default;"/>
    </g>
  </g>
</svg>