<?xml version="1.0" encoding="utf-8"?>
<svg viewBox="0 0 500 500" xmlns="http://www.w3.org/2000/svg">
  <g data-id="`LV}[)AA*BcR!4D0QakQ" class="blocklyDraggable" transform="matrix(6.210951, 0, 0, 6.210951, 42.775677, 21.3316)" style="">
    <path class="blocklyPath" d="M 13.137 74.074 C 11.768 74.074 10.566 72.866 10.566 71.659 L 10.566 2.555 C 10.566 1.347 11.773 0.14 12.981 0.14 L 47.581 0.14 C 48.789 0.14 49.996 1.347 49.996 2.555 L 49.998 9.931000000000001 L 44.569 13.516 L 41.985 13.516 L 35.985 9.516 L 22.352 9.51 C 21.144 9.51 19.936 10.718 19.936 11.925 L 19.936 62.288 C 19.936 63.496 21.144 64.703 22.352 64.703 L 37.833 64.658 L 41.5 67.104 L 44.5 67.104 L 49.058 64.076 L 50.207 63.932 L 50.206 71.659 C 50.206 72.866 48.998 74.074 47.79 74.074 L 13.137 74.074 Z" style="fill: none; stroke: rgb(223, 192, 131); paint-order: fill; stroke-width: 1.61006px;"/>
    <g data-id="KEg=[.:@[3wPZ^mJQ|%G" transform="matrix(1, 0, 0, 1, 21, 11.104242)" style="display: block;" class="blocklyDraggable">
      <g>
        <path class="blocklyPath" d="M 0.539 25.003 L 0.53 0.882 C 0.53 0.47300000000000003 1.011 0.003 1.395 0.003 L 14.523 0 L 20.523 4 L 24 4 L 30 0 L 32.651 0 C 33.859 0 35.066 1.208 35.066 2.415 L 34.953 22.589 C 34.953 23.793 33.73 25.004 32.522 25.004 L 29.5 25 L 24.023 28.999 L 21.012 28.999 L 15.023 25.006 L 0.539 25.003 Z" style="fill: none; stroke-width: 1.59288px; stroke: rgb(69, 140, 199);"/>
        <g class="blocklyEditableText" transform="matrix(1.054514, 0, 0, 0.862297, 2.521756, 6.311489)" style="cursor: default;">
          <path style="fill: none; stroke-width: 1.66196px; stroke: rgb(69, 140, 199);" d="M 6.616 1.923 L 19.945 1.905 C 21.09 1.905 22.235 3.305 22.235 4.705 L 22.235 12.062 C 22.235 13.462 21.09 14.863 19.945 14.863 L 6.616 14.844 L 6.616 1.923 Z"/>
        </g>
      </g>
      <g data-id="lG`fd)H(I$$wx:Jxd.D$" transform="translate(0,26)" class="blocklyDraggable">
        <path class="blocklyPath" d="M 0.532 -0.994 L 15.016 -1 L 21.016 3 L 24.016 3 L 29.497 -0.994 L 32.522 -0.996 C 33.73 -0.996 34.937 0.212 34.937 1.419 L 34.937 23.429 C 34.937 24.636 33.73 26.005 32.522 26.005 L 29.516 26 L 23.516 30 L 20.516 30 L 14.516 26 L 1.352 26.005 C 1.041 26.005 0.53 25.506 0.53 25.184 L 0.532 -0.994 Z" style="fill: none; stroke-width: 1.59288px; stroke: rgb(69, 140, 199);"/>
        <g class="blocklyEditableText" transform="matrix(1.054514, 0, 0, 0.862297, 3.637074, 32.317848)" style="cursor: default;">
          <path style="fill: none; stroke-width: 1.66196px; stroke: rgb(69, 140, 199);" d="M 5.558 -28.233 L 18.888 -28.252 C 20.033 -28.252 21.178 -26.852 21.178 -25.451 L 21.178 -18.095 C 21.178 -16.694 20.033 -15.294 18.888 -15.294 L 5.558 -15.312 L 5.558 -28.233 Z"/>
        </g>
      </g>
    </g>
  </g>
</svg>