<?xml version="1.0" encoding="utf-8"?>
<svg viewBox="0 0 500 500" xmlns="http://www.w3.org/2000/svg">
  <g data-id="`LV}[)AA*BcR!4D0QakQ" class="blocklyDraggable" transform="matrix(6.210951, 0, 0, 6.210951, 51.776821, 19.531612)" style="">
    <path class="blocklyPath" d="M 10.548 74.074 C 9.179 74.074 7.977 72.866 7.977 71.659 L 7.977 2.555 C 7.977 1.347 9.184 0.14 10.392 0.14 L 48.048 0.14 C 49.256 0.14 50.463 1.347 50.463 2.555 L 50.462 10.484 L 44.749 14.293 L 41.772 14.293 L 35.769 10.293 L 22.426 10.287 C 21.555 10.287 20.708 11.094 20.708 12.022 L 20.708 62.308 C 20.708 63.005 21.551 63.925 22.341 63.925 L 35.283 63.918 L 41.271 67.911 L 44.76 67.911 L 50.243 64.255 L 50.463 63.286 L 50.463 71.659 C 50.463 72.866 49.256 74.074 48.048 74.074 L 10.548 74.074 Z" style="paint-order: fill; stroke-width: 0.80503px; stroke: rgb(0, 0, 0); fill: rgb(255, 255, 255);"/>
    <g data-id="KEg=[.:@[3wPZ^mJQ|%G" transform="matrix(1, 0, 0, 1, 21, 11.104242)" style="display: block;" class="blocklyDraggable">
      <g>
        <path class="blocklyPath" d="M 0.539 24.684 L 0.53 0.882 C 0.53 0.473 1.011 0.003 1.395 0.003 L 14.523 0 L 20.523 4 L 24 4 L 30 0 L 32.651 0 C 33.859 0 35.066 1.208 35.066 2.415 L 34.953 22.27 C 34.953 23.474 33.73 24.685 32.522 24.685 L 29.5 24.681 L 24.023 28.68 L 21.012 28.68 L 15.023 24.687 L 0.539 24.684 Z" style="stroke-width: 0.80503px; stroke: rgb(0, 0, 0); fill: rgb(255, 255, 255);"/>
        <g class="blocklyEditableText" transform="matrix(1.054514, 0, 0, 0.862297, 2.521756, 6.311489)" style="cursor: default;">
          <path style="stroke-width: 0.839968px; stroke: rgb(0, 0, 0);" d="M 6.616 1.923 L 19.945 1.905 C 21.09 1.905 22.235 3.305 22.235 4.705 L 22.235 12.062 C 22.235 13.462 21.09 14.863 19.945 14.863 L 6.616 14.844 L 6.616 1.923 Z"/>
        </g>
      </g>
      <g data-id="lG`fd)H(I$$wx:Jxd.D$" transform="translate(0,26)" class="blocklyDraggable">
        <path class="blocklyPath" d="M 0.532 -0.595 L 15.016 -0.601 L 21.016 3.399 L 24.016 3.399 L 29.497 -0.595 L 32.522 -0.597 C 33.73 -0.597 34.937 0.611 34.937 1.818 L 34.937 23.429 C 34.937 24.636 33.73 26.005 32.522 26.005 L 29.516 26 L 23.516 30 L 20.516 30 L 14.516 26 L 1.352 26.005 C 1.041 26.005 0.53 25.506 0.53 25.184 L 0.532 -0.595 Z" style="stroke-width: 0.80503px; stroke: rgb(0, 0, 0); fill: rgb(255, 255, 255);"/>
        <g class="blocklyEditableText" transform="matrix(1.054514, 0, 0, 0.862297, 3.637074, 32.317848)" style="cursor: default;">
          <path style="stroke-width: 0.839968px; stroke: rgb(0, 0, 0);" d="M 5.558 -28.233 L 18.888 -28.252 C 20.033 -28.252 21.178 -26.852 21.178 -25.451 L 21.178 -18.095 C 21.178 -16.694 20.033 -15.294 18.888 -15.294 L 5.558 -15.312 L 5.558 -28.233 Z"/>
        </g>
      </g>
    </g>
  </g>
</svg>