<?xml version="1.0" encoding="utf-8"?>
<svg viewBox="0 0 500 500" xmlns="http://www.w3.org/2000/svg" xmlns:bx="https://boxy-svg.com">
  <g data-id="`LV}[)AA*BcR!4D0QakQ" class="blocklyDraggable" transform="matrix(6.277939, 0, 0, 6.277939, 76.164467, 18.609652)" style="">
    <path class="blocklyPathDark" transform="translate(1,1)" d="M 7.15 74.287 C -12.51 70.687 -15.322 0.006 8 0 C 8 0 47.264 -2.335 50 0 C 52.252 1.922 50 10 50 10 L 44 14 L 39.973 14 L 33.973 10 L 28 10 C 23.582 10 21.203 9.738 20 11.615 C 10.356 26.665 15.17 51.907 20 59.542 C 21.829 62.434 23.582 64.094 28 64.094 C 28 64.094 45.265 63.002 50 64.094 C 53.248 64.843 52.036 70.576 49.276 72.445 C 45.168 75.226 20.223 76.681 7.15 74.287 Z" style="fill: rgb(141, 114, 60);"/>
    <path class="blocklyPath" stroke="none" d="M 8.16 73.966 C -8.893 70.005 -13.454 6.95 8 0 C 24.317 -5.286 47.941 -2.012 50 0 C 52.292 2.24 50 10 50 10 L 44 14 L 41 14 L 35 10 L 28 10 C 23.582 10 21.653 9.716 20 11.871 C 8.765 26.519 14.271 54.123 20 61.329 C 22.218 64.119 23.582 64.094 28 64.094 C 28 64.094 47.068 63.479 50 64.094 C 53.262 64.778 52.412 71.072 49.548 72.778 C 44.676 75.679 19.009 76.486 8.16 73.966 Z" style="fill: rgb(223, 193, 131);"/>
    <g data-id="KEg=[.:@[3wPZ^mJQ|%G" transform="translate(21,11)" style="display: block;" class="blocklyDraggable">
      <path class="blocklyPathDark" transform="translate(1,1)" d="M 0 8 C 0 3.582 3.582 0 8 0 L 15 0 L 21 4 L 24 4 L 30 0 C 30 0 33.317 -0.717 34.933 0.461 C 41.132 4.98 43.491 17.741 34.714 23.302 C 32.884 24.461 29.5 25 29.5 25 L 23.5 29 L 19.5 29 L 13.5 25 L -7.07 25 L -7.07 23.406 L 0 8 Z" style="fill: rgb(32, 54, 72);"/>
      <path class="blocklyPath" stroke="none" d="M -3.387 8.15 C -2.455 5.748 -1.22 3.184 -0.017 1.575 C 1.547 -0.518 3.914 0.033 6.812 -0.034 L 14.523 0 L 20.523 4 L 24 4 L 30 0 C 30 0 33.671 -0.251 35.068 1.18 C 42.319 8.608 41.515 19.815 34.944 23.625 C 33.07 24.712 29.5 25 29.5 25 L 23.5 29 L 20.5 29 L 14.5 25 L -6.108 25.022 C -6.217 16.943 -4.46 10.917 -3.387 8.15 Z" style="fill: rgb(48, 79, 104);"/>
      <g class="blocklyEditableText" transform="matrix(1.054514, 0, 0, 0.862297, 2.521756, 6.311489)" style="cursor: default;">
        <path class="blocklyFieldRect" style="fill-opacity: 1; fill: rgb(255, 255, 255);" d="M 5.77 1.915 H 20.235 A 5.445 5.445 0 0 1 25.68 7.36 V 9.406 A 5.445 5.445 0 0 1 20.235 14.851 H 5.77 A 1.11 1.11 0 0 1 4.66 13.741 V 3.025 A 1.11 1.11 0 0 1 5.77 1.915 Z" bx:shape="rect 4.66 1.915 21.02 12.936 1.11 5.445 5.445 1.11 1@8e6f9cbe"/>
        <path style="fill-rule: nonzero; paint-order: fill markers; stroke: rgb(119, 94, 94); stroke-width: 0px; fill: rgb(32, 54, 72);" d="M 5.754 1.858 C 5.032 1.858 4.636 2.436 4.636 2.964 C 4.636 2.964 4.636 10.202 4.636 13.821 C 4.636 14.259 4.957 14.851 5.758 14.851 L 6.119 14.858 C 5.66 14.858 5.715 12.91 5.715 12.702 C 5.715 4.962 5.718 4.361 5.718 4.361 C 5.718 3.54 5.882 3.218 6.499 3.218 C 7.07 3.218 15.484 3.263 20.2 3.263 C 22.892 3.263 24.966 4.591 24.966 4.591 C 24.796 4.195 23.219 1.843 20.323 1.843 C 20.323 1.843 10.589 1.858 5.754 1.858 Z"/>
      </g>
      <g data-id="lG`fd)H(I$$wx:Jxd.D$" transform="translate(0,26)" class="blocklyDraggable">
        <path class="blocklyPathDark" transform="translate(1,1)" d="M 0 0 L 15 0 L 21 4 L 24 4 L 30 0 C 30 0 33.717 -0.16 35.357 0.984 C 44.106 7.087 42.051 22.455 34.741 24.56 C 32.659 25.159 29.5 26 29.5 26 L 23.5 30 L 19.914 30 L 13.914 26 L 3.308 26.187 C -0.452 26.002 -1.804 21.372 -1.804 16.954 L 0 0 Z" style="fill: rgb(32, 54, 72);"/>
        <path class="blocklyPath" stroke="none" d="M -6.062 0 L 15 0 L 21 4 L 24 4 L 30 0 C 30 0 32.868 -0.312 34.781 1.099 C 44.147 8.008 41.293 22.687 34.831 24.673 C 32.76 25.31 29.5 26 29.5 26 L 23.5 30 L 20.5 30 L 14.5 26 L 3.678 26.187 C 0.1 26.125 -2.668 18.989 -3.285 16.954 C -5.912 8.288 -6.062 0 -6.062 0 Z" style="fill: rgb(48, 79, 104);"/>
        <g class="blocklyEditableText" transform="matrix(1.054514, 0, 0, 0.862297, 3.637074, 6.311485)" style="cursor: default;">
          <path class="blocklyFieldRect" style="fill-opacity: 1; fill: rgb(255, 255, 255);" d="M 4.712 1.915 H 19.136 A 5.486 5.486 0 0 1 24.622 7.401 V 9.365 A 5.486 5.486 0 0 1 19.136 14.851 H 4.712 A 1.11 1.11 0 0 1 3.602 13.741 V 3.025 A 1.11 1.11 0 0 1 4.712 1.915 Z" bx:shape="rect 3.602 1.915 21.02 12.936 1.11 5.486 5.486 1.11 1@a1e26e5a"/>
          <path style="fill-rule: nonzero; paint-order: fill markers; stroke: rgb(119, 94, 94); stroke-width: 0px; fill: rgb(32, 54, 72);" d="M 4.696 1.898 C 3.974 1.898 3.578 2.476 3.578 3.004 C 3.578 3.004 3.578 10.242 3.578 13.861 C 3.578 14.299 3.899 14.89 4.701 14.89 L 5.061 14.897 C 4.602 14.897 4.657 12.95 4.657 12.742 C 4.657 5.002 4.66 4.401 4.66 4.401 C 4.66 3.58 4.824 3.258 5.441 3.258 C 6.012 3.258 14.426 3.303 19.142 3.303 C 21.835 3.303 23.909 4.631 23.909 4.631 C 23.738 4.235 22.162 1.883 19.266 1.883 C 19.266 1.883 9.531 1.898 4.696 1.898 Z"/>
        </g>
      </g>
      <g class="blocklyEditableText" transform="matrix(1.054514, 0, 0, 0.862297, 2.521755, 5.891761)" style="cursor: default;"/>
    </g>
  </g>
</svg>